<svg xmlns="http://www.w3.org/2000/svg" viewBox="0 0 60 40"><path fill="#de2910" d="M0 0h60v40H0z"/><polygon fill="#ffde00" points="10.00,4.00 11.35,8.15 15.71,8.15 12.18,10.71 13.53,14.85 10.00,12.29 6.47,14.85 7.82,10.71 4.29,8.15 8.65,8.15"/><polygon fill="#ffde00" points="20.00,2.00 20.45,3.38 21.90,3.38 20.73,4.24 21.18,5.62 20.00,4.76 18.82,5.62 19.27,4.24 18.10,3.38 19.55,3.38"/><polygon fill="#ffde00" points="24.00,6.00 24.45,7.38 25.90,7.38 24.73,8.24 25.18,9.62 24.00,8.76 22.82,9.62 23.27,8.24 22.10,7.38 23.55,7.38"/><polygon fill="#ffde00" points="24.00,12.00 24.45,13.38 25.90,13.38 24.73,14.24 25.18,15.62 24.00,14.76 22.82,15.62 23.27,14.24 22.10,13.38 23.55,13.38"/><polygon fill="#ffde00" points="20.00,16.00 20.45,17.38 21.90,17.38 20.73,18.24 21.18,19.62 20.00,18.76 18.82,19.62 19.27,18.24 18.10,17.38 19.55,17.38"/></svg>